<svg xmlns="http://www.w3.org/2000/svg" width="256" height="256" viewBox="0 0 24 24" fill="none">
  <path fill="#FFFFFF" d="M12 2C6.477 2 2 6.486 2 12.02c0 4.422 2.865 8.172 6.839 9.504.5.092.682-.218.682-.484 0-.239-.009-.873-.014-1.713-2.782.605-3.369-1.342-3.369-1.342-.455-1.158-1.11-1.466-1.11-1.466-.908-.62.069-.608.069-.608 1.004.071 1.533 1.033 1.533 1.033.892 1.53 2.341 1.088 2.91.832.091-.647.35-1.088.636-1.338-2.221-.254-4.555-1.113-4.555-4.951 0-1.093.39-1.988 1.029-2.688-.103-.254-.446-1.276.098-2.66 0 0 .84-.27 2.75 1.026A9.56 9.56 0 0 1 12 6.844c.85.004 1.705.116 2.504.339 1.908-1.296 2.746-1.026 2.746-1.026.546 1.384.202 2.406.099 2.66.642.7 1.028 1.595 1.028 2.688 0 3.849-2.337 4.694-4.566 4.943.36.31.682.923.682 1.86 0 1.342-.012 2.422-.012 2.752 0 .268.18.58.688.481A10.026 10.026 0 0 0 22 12.02C22 6.486 17.523 2 12 2Z"/>
</svg>
