<?xml version="1.0" encoding="UTF-8"?>
<svg version="1.1" xmlns="http://www.w3.org/2000/svg" width="1024" height="1024">
  <defs>
    <clipPath id="rounded-icon">
      <rect x="0" y="0" width="1024" height="1024" rx="180" ry="180" />
    </clipPath>
  </defs>
  <g clip-path="url(#rounded-icon)">
<path d="M0 0 C337.92 0 675.84 0 1024 0 C1024 337.92 1024 675.84 1024 1024 C686.08 1024 348.16 1024 0 1024 C0 686.08 0 348.16 0 0 Z " fill="#141419" transform="translate(0,0)"/>
<path d="M0 0 C2.15159478 3.22739218 2.18667976 4.06532467 1.53027344 7.71664429 C0.29229272 13.04738525 -1.30962631 18.27788828 -2.875 23.51953125 C-3.27610806 24.87593726 -3.67676208 26.2324776 -4.07699585 27.58914185 C-4.93287293 30.48701219 -5.79173835 33.38397288 -6.65301514 36.28024292 C-8.01135967 40.84822848 -9.36298652 45.41818364 -10.71337891 49.98852539 C-12.10049767 54.68208467 -13.48800634 59.37552635 -14.87783813 64.06828308 C-19.0409939 78.12540492 -23.17549769 92.19082284 -27.29736328 106.26010132 C-28.3443652 109.8329598 -29.39275975 113.40540712 -30.44140625 116.9777832 C-31.71025971 121.30133372 -32.97403094 125.62631423 -34.23339844 129.95263672 C-35.40751239 133.9854453 -36.60015601 138.01211579 -37.80566406 142.03564453 C-38.36282439 143.92084106 -38.91980013 145.80609215 -39.4765625 147.69140625 C-39.86199722 148.95596901 -39.86199722 148.95596901 -40.25521851 150.24607849 C-41.64604476 154.99803283 -42.36618216 159.0435499 -42 164 C-40.05445077 165.94554923 -37.10077553 165.13116693 -34.51042175 165.14344788 C-33.57587662 165.14291916 -32.64133148 165.14239044 -31.6784668 165.1418457 C-30.69963531 165.14532013 -29.72080383 165.14879456 -28.71231079 165.15237427 C-26.57879395 165.15974643 -24.44526936 165.16508399 -22.31174278 165.16866493 C-18.93740421 165.17580625 -15.5632131 165.19145515 -12.18891907 165.21000671 C-2.59219385 165.26258671 7.00445221 165.31046866 16.60131836 165.32592773 C22.46406555 165.33599302 28.32644482 165.3652829 34.18904686 165.40724754 C36.42695524 165.41958544 38.66491554 165.42467374 40.90285683 165.42244911 C44.03240004 165.42010385 47.16088296 165.44220491 50.2902832 165.4699707 C51.21875565 165.46336929 52.14722809 165.45676788 53.10383606 165.44996643 C59.37093712 165.54147314 59.37093712 165.54147314 62.54411316 167.85441589 C64.49246655 170.72576272 65.0043334 172.51594611 65 176 C63.7427351 178.37312592 62.5742483 180.17044956 60.9375 182.25 C60.48922852 182.8478833 60.04095703 183.4457666 59.57910156 184.06176758 C58.07275311 186.05739882 56.53952913 188.0298728 55 190 C53.90232255 191.41534814 52.80466681 192.83071312 51.70703125 194.24609375 C49.96122876 196.4920154 48.2124323 198.73539434 46.45678711 200.97363281 C42.20050877 206.40912739 38.07226195 211.9256274 34 217.5 C28.82329296 224.58193227 23.51296117 231.54144725 18.10498047 238.44799805 C13.89361349 243.83206875 9.76612049 249.27182868 5.67919922 254.75073242 C1.48972863 260.36219673 -2.7503401 265.9340162 -7 271.5 C-12.17070707 278.2741731 -17.31333569 285.06748864 -22.4152832 291.89355469 C-27.33167137 298.4620018 -32.3117434 304.9815829 -37.2890625 311.50390625 C-40.71070013 315.98946959 -44.12329936 320.4805154 -47.5 325 C-51.56782354 330.44450569 -55.68950372 335.84718889 -59.8125 341.25 C-64.56718002 347.48117955 -69.30754769 353.72181126 -74 360 C-79.30394031 367.09621837 -84.67165623 374.14282334 -90.04956055 381.18310547 C-94.84001464 387.45985383 -99.59058741 393.76493502 -104.28320312 400.11523438 C-108.67221643 406.01552916 -108.67221643 406.01552916 -111 408 C-114.88476306 408.49442439 -117.11181312 408.53291213 -120.5 406.5 C-122.65913993 402.90143346 -121.79412526 399.94261832 -121 396 C-119.90072055 391.70412422 -118.62826893 387.4663371 -117.34375 383.22265625 C-116.78232803 381.34028008 -116.78232803 381.34028008 -116.20956421 379.4198761 C-115.19199846 376.00837937 -114.16672817 372.59924297 -113.14003754 369.19048309 C-112.06283109 365.60901018 -110.99291175 362.02536206 -109.92236328 358.44189453 C-108.1564497 352.53362858 -106.38665653 346.62653836 -104.61425781 340.72021484 C-102.15728072 332.53130223 -99.71316688 324.33859656 -97.2734375 316.14453125 C-96.90171417 314.89660797 -96.52999084 313.64868469 -96.14700317 312.36294556 C-94.6994963 307.50321054 -93.25224416 302.64340079 -91.80670166 297.78308105 C-88.55181767 286.8398292 -85.29694796 275.89815259 -81.90625 264.99609375 C-81.46351015 263.56272275 -81.02095466 262.1292948 -80.57861328 260.69580078 C-79.81504515 258.22162151 -79.03593346 255.7545479 -78.24560547 253.28857422 C-77.92479004 252.25104004 -77.60397461 251.21350586 -77.2734375 250.14453125 C-76.99935059 249.28190674 -76.72526367 248.41928223 -76.44287109 247.53051758 C-75.89830764 244.41894084 -76.21634533 242.04854156 -77 239 C-80.36335286 237.31832357 -84.16866306 237.84670112 -87.8684082 237.84228516 C-88.787258 237.83720444 -89.70610779 237.83212372 -90.65280151 237.82688904 C-92.65260674 237.81617172 -94.65242405 237.80755691 -96.65224648 237.80076981 C-99.81690917 237.78900253 -102.98143406 237.76955502 -106.14604187 237.74765015 C-115.14541036 237.68596274 -124.14476553 237.63198227 -133.14428711 237.59863281 C-138.64505557 237.5776973 -144.14557431 237.5424011 -149.64620018 237.49787521 C-151.74372609 237.48370409 -153.84129619 237.47499028 -155.93886757 237.47182083 C-158.87398048 237.46691682 -161.80842991 237.44377114 -164.7434082 237.41650391 C-166.04421074 237.42101311 -166.04421074 237.42101311 -167.37129211 237.4256134 C-172.05506336 237.36093616 -175.20451282 237.05896048 -179 234 C-180.62187067 230.75625865 -180.4282736 228.60973461 -180 225 C-178.1956389 221.82074433 -175.90897399 219.10599251 -173.5625 216.3125 C-172.25836978 214.70112334 -170.95498308 213.08914464 -169.65234375 211.4765625 C-169.01796387 210.7021582 -168.38358398 209.92775391 -167.72998047 209.12988281 C-165.62188513 206.53448008 -163.61244002 203.87616154 -161.625 201.1875 C-157.52045572 195.67655694 -153.35692495 190.21199523 -149.1875 184.75 C-144.43272005 178.51889769 -139.69244617 172.2781917 -135 166 C-129.6162364 158.79686997 -124.1664166 151.64500223 -118.7109375 144.49609375 C-115.28929987 140.01053041 -111.87670064 135.5194846 -108.5 131 C-104.43217646 125.55549431 -100.31049628 120.15281111 -96.1875 114.75 C-91.43281994 108.5188204 -86.69245767 102.27818475 -82 96 C-76.75798391 88.98674181 -71.45132667 82.02391067 -66.13720703 75.06518555 C-61.51528224 69.0063901 -56.93505775 62.91794699 -52.375 56.8125 C-47.09358985 49.74488261 -41.72232759 42.75580718 -36.28442383 35.80810547 C-31.17812725 29.26794289 -26.1934757 22.64003957 -21.23632812 15.98632812 C-18.23889626 11.9665164 -15.22845118 7.95669213 -12.18359375 3.97265625 C-11.6208374 3.234104 -11.05808105 2.49555176 -10.47827148 1.73461914 C-7.33243748 -1.95673521 -4.45612255 -0.9548834 0 0 Z " fill="#FE7718" transform="translate(336,299)"/>
<path d="M0 0 C9.46722351 8.86360859 14.22096748 19.44994579 14.703125 32.2421875 C14.51954042 42.15575502 11.20897933 50.73319765 4.328125 57.9296875 C-0.41385464 62.10262958 -6.14097701 66.9296875 -12.671875 66.9296875 C-12.671875 67.5896875 -12.671875 68.2496875 -12.671875 68.9296875 C-11.80304688 69.0328125 -10.93421875 69.1359375 -10.0390625 69.2421875 C-0.33239318 71.22405966 7.7457179 77.96958849 13.328125 85.9296875 C19.67840313 96.72516032 20.82999446 107.67013012 18.83203125 119.98828125 C15.39314313 132.44210772 7.1213895 141.22415097 -3.6953125 147.80859375 C-21.02218022 157.5706358 -45.59815903 159.18695941 -64.609375 154.1796875 C-66.97632928 153.47107749 -69.33294068 152.72592046 -71.671875 151.9296875 C-72.59742188 151.6409375 -73.52296875 151.3521875 -74.4765625 151.0546875 C-86.25939334 146.94354403 -96.30259258 138.4269257 -102.015625 127.31640625 C-104.02943589 122.57675847 -105.30963672 118.09158305 -105.671875 112.9296875 C-105.76662109 111.71539062 -105.76662109 111.71539062 -105.86328125 110.4765625 C-106.32746316 99.99503544 -103.40209803 90.96445572 -96.58203125 82.95703125 C-90.72863718 76.74453325 -84.71899621 72.03133102 -76.671875 68.9296875 C-75.681875 68.9296875 -74.691875 68.9296875 -73.671875 68.9296875 C-73.671875 68.2696875 -73.671875 67.6096875 -73.671875 66.9296875 C-74.661875 66.7234375 -75.651875 66.5171875 -76.671875 66.3046875 C-85.34651401 63.78624392 -92.66534106 56.28646184 -96.99609375 48.5703125 C-101.16437793 38.91744387 -101.34683432 26.90835 -98.109375 16.9296875 C-92.94595666 5.01410673 -83.42019241 -3.09050378 -71.56640625 -8.00390625 C-49.01123207 -16.31370726 -19.48201653 -15.09571456 0 0 Z " fill="#F9FAFD" transform="translate(564.671875,335.0703125)"/>
<path d="M0 0 C74.80048077 0 74.80048077 0 95.1875 18.5625 C108.97418677 33.19846932 113.8894817 54.01509432 113.3046875 73.62890625 C112.23211954 92.99274678 106.22542847 110.44950062 92 124 C91.43796875 124.56976562 90.8759375 125.13953125 90.296875 125.7265625 C67.54612861 147.26246321 25.2909888 140 0 140 C0 93.8 0 47.6 0 0 Z " fill="#F9FAFD" transform="translate(458,525)"/>
<path d="M0 0 C9.85663273 7.20292392 14.9890578 17.29017364 17.0625 29.1875 C17.59371865 36.08955 17.41262316 43.03291367 17.35546875 49.94921875 C17.34986439 51.95131612 17.34559827 53.95341765 17.34260559 55.95552063 C17.33122294 61.19159567 17.30181322 66.42741586 17.26849365 71.66339111 C17.23765001 77.01969965 17.22406987 82.37604988 17.20898438 87.73242188 C17.17693648 98.21757715 17.12422315 108.70247738 17.0625 119.1875 C6.8325 119.1875 -3.3975 119.1875 -13.9375 119.1875 C-13.9468457 116.75060791 -13.95619141 114.31371582 -13.96582031 111.80297852 C-13.99967133 103.72829764 -14.05526533 95.65387014 -14.12140274 87.57939243 C-14.16081873 82.68646008 -14.19303599 77.79370611 -14.20849609 72.90063477 C-14.22370146 68.17362653 -14.2582156 63.44710891 -14.30580902 58.72031975 C-14.3205829 56.92196874 -14.32853871 55.12354768 -14.32938385 53.32513618 C-13.94932696 38.95971872 -13.94932696 38.95971872 -20.38433838 26.62843323 C-26.59658725 21.1150532 -32.06637952 20.58190446 -40.15625 20.8046875 C-46.63203425 21.46029376 -50.72082004 23.97082004 -55.25 28.5 C-59.91422488 35.92821 -62.06997759 41.80567854 -62.14282227 50.61816406 C-62.15767166 51.73094727 -62.15767166 51.73094727 -62.17282104 52.86621094 C-62.20434147 55.31181679 -62.22915595 57.75744205 -62.25390625 60.203125 C-62.27448395 61.9013519 -62.29548064 63.59957377 -62.31687927 65.29779053 C-62.37201567 69.7627759 -62.42146207 74.22780685 -62.46972656 78.69287109 C-62.52000322 83.25101772 -62.57565709 87.80909834 -62.63085938 92.3671875 C-62.73833781 101.30723732 -62.83930856 110.24734335 -62.9375 119.1875 C-73.1675 119.1875 -83.3975 119.1875 -93.9375 119.1875 C-93.9375 78.2675 -93.9375 37.3475 -93.9375 -4.8125 C-84.0375 -4.8125 -74.1375 -4.8125 -63.9375 -4.8125 C-63.6075 1.7875 -63.2775 8.3875 -62.9375 15.1875 C-61.7 12.9290625 -61.7 12.9290625 -60.4375 10.625 C-55.10422159 1.79448984 -47.99175288 -3.54922682 -38.04956055 -6.34301758 C-25.32174697 -9.17223796 -10.99316056 -6.81137689 0 0 Z " fill="#FAFBFD" transform="translate(700.9375,369.8125)"/>
<path d="M0 0 C0.87035889 -0.0100708 1.74071777 -0.0201416 2.63745117 -0.03051758 C14.68509883 0.12966331 25.22976797 4.47266647 34.125 12.625 C38.21264047 17.02041576 40.89183126 22.00601563 43.375 27.4375 C43.79136719 28.32308594 44.20773437 29.20867188 44.63671875 30.12109375 C47.61429703 37.8210067 47.75821565 45.31749999 47.8125 53.5 C47.82265137 54.58804932 47.83280273 55.67609863 47.84326172 56.79711914 C47.69150604 70.97131364 44.04512459 83.56474232 34.375 94.1875 C22.68386022 105.26122013 9.50991899 106.91490644 -5.88671875 106.7109375 C-17.90875342 106.31842885 -27.36389623 101.68760008 -35.84765625 93.21875 C-45.39723722 82.22334462 -49.03454386 67.93203777 -48.9375 53.625 C-48.93186035 52.7484375 -48.9262207 51.871875 -48.92041016 50.96875 C-48.63641813 35.74002924 -43.53722007 22.61815731 -32.90234375 11.55859375 C-29.67968279 8.5570416 -26.60827027 6.3149195 -22.625 4.4375 C-21.42230469 3.85162109 -21.42230469 3.85162109 -20.1953125 3.25390625 C-13.50833039 0.51660054 -7.13612138 0.05334362 0 0 Z " fill="#F8FAFC" transform="translate(634.625,559.5625)"/>
<path d="M0 0 C43.3330292 0 43.3330292 0 55.6875 11.0625 C65.7020351 21.72914436 67.34946377 34.82205098 67.3125 48.75 C67.32861328 49.94882812 67.34472656 51.14765625 67.36132812 52.3828125 C67.3684129 65.44713401 65.02291016 76.95586129 56.25390625 87 C40.97731433 101.7366708 19.74910543 98 0 98 C0 65.66 0 33.32 0 0 Z " fill="#141519" transform="translate(480,546)"/>
<path d="M0 0 C6.79131866 5.10625463 11.26494616 11.07551305 13.9375 19.1875 C13.9375 20.1775 13.9375 21.1675 13.9375 22.1875 C11.18821558 22.69173557 8.43818857 23.19103426 5.6875 23.6875 C4.91019531 23.83058594 4.13289062 23.97367188 3.33203125 24.12109375 C2.57792969 24.25644531 1.82382812 24.39179687 1.046875 24.53125 C0.35561523 24.65693359 -0.33564453 24.78261719 -1.04785156 24.91210938 C-3.0625 25.1875 -3.0625 25.1875 -7.0625 25.1875 C-8.37109375 23.54296875 -8.37109375 23.54296875 -9.5 21.375 C-11.9081087 17.19405055 -14.15127119 15.0754565 -18.85546875 13.640625 C-26.0911127 12.15507686 -33.03661328 12.4390687 -39.5390625 16.01953125 C-41.36192741 17.28691586 -41.36192741 17.28691586 -43.0625 20.1875 C-43.58672307 24.23150655 -43.56297071 26.39045406 -41.375 29.875 C-35.38664278 34.9792822 -26.16271784 35.96048809 -18.68603516 37.6340332 C3.87137533 42.70025528 3.87137533 42.70025528 10.9375 51.1875 C15.8659148 59.13948216 16.91918743 66.58074358 15.546875 75.81640625 C13.59920774 83.794351 9.05160726 89.1726822 2.49609375 93.9765625 C-10.54317822 101.86619651 -26.52452679 103.00209646 -41.125 99.625 C-52.33072404 96.71476592 -59.78172139 91.53454669 -66.50390625 82.03125 C-68.29897048 78.7560451 -69.16307792 75.80308727 -70.0625 72.1875 C-67.68842408 71.53810264 -65.3133361 70.89289947 -62.9375 70.25 C-61.93976562 69.97639648 -61.93976562 69.97639648 -60.921875 69.69726562 C-56.98804773 68.63667494 -53.09276435 67.78387868 -49.0625 67.1875 C-48.75957031 67.71859375 -48.45664062 68.2496875 -48.14453125 68.796875 C-44.0580382 75.68733097 -40.1314569 79.32128687 -32.3828125 81.6484375 C-25.35574127 83.2809894 -18.58093541 82.17278688 -12.0625 79.1875 C-8.79922928 76.71267053 -7.25043822 74.21071918 -6.5 70.125 C-7.25998222 66.15620397 -7.96304771 64.86429971 -11.0625 62.1875 C-18.11105815 58.94145348 -25.60921213 57.64982895 -33.19042969 56.32714844 C-44.54351077 54.28130249 -55.46352307 50.34891088 -62.80859375 41.0625 C-66.92865508 34.90166062 -68.03832962 28.50622218 -67.0625 21.1875 C-64.46068057 10.96606653 -58.20137669 3.96562564 -49.3984375 -1.5625 C-34.3797452 -9.59925842 -14.45944648 -9.06449334 0 0 Z " fill="#F8F9FC" transform="translate(868.0625,565.8125)"/>
<path d="M0 0 C9.68838443 6.07551657 15.66264307 14.08085272 19 25 C19.495 27.97 19.495 27.97 20 31 C12.74 31 5.48 31 -2 31 C-3.65 28.03 -5.3 25.06 -7 22 C-12.36146738 16.75022986 -16.83990847 14.71449211 -24.3125 14.625 C-31.17439197 14.76440638 -35.82560373 15.78936633 -40.7109375 20.73046875 C-47.23551417 28.70318317 -48.54246941 37.24210159 -48.4375 47.3125 C-48.42992676 48.32634766 -48.42235352 49.34019531 -48.41455078 50.38476562 C-48.1999758 60.1393128 -46.82086922 69.32513096 -39.76171875 76.59765625 C-34.8688321 80.49243742 -29.32796067 82.68802068 -23.04296875 82.32421875 C-16.99941233 81.3651075 -11.22216189 79.57400872 -7 75 C-5.1399896 71.72823656 -3.57765995 68.4257759 -2 65 C5.26 65 12.52 65 20 65 C18.51188782 76.90489741 15.34055495 85.09033857 6 93 C-7.02448052 101.22198829 -20.92530439 104.24217491 -36.125 100.8125 C-48.88634904 97.24265857 -57.5869718 91.2752598 -64.4296875 79.921875 C-72.73871525 64.46129601 -74.61035834 45.09853106 -70.09765625 28.16015625 C-65.33555744 14.45005683 -57.522707 4.87180764 -44.67578125 -1.80859375 C-31.24207867 -7.79002337 -12.83312314 -7.46243284 0 0 Z " fill="#F7F9FB" transform="translate(768,565)"/>
<path d="M0 0 C6.84506469 5.81830498 10.47477182 13.60420458 11.640625 22.39453125 C12.4391843 34.89654095 12.83951097 48.58897573 4.38671875 58.70703125 C-1.86458694 64.74856158 -8.14565622 66.80249214 -16.703125 66.6640625 C-23.03533417 66.02152951 -27.78113165 63.38158872 -32.171875 58.83203125 C-38.72766104 50.38979055 -40.01230379 41.26304896 -39.859375 30.83203125 C-39.87484375 29.77306641 -39.8903125 28.71410156 -39.90625 27.62304688 C-39.85642825 17.51545857 -37.26650855 9.37363211 -30.18359375 2.0234375 C-22.64497504 -4.70804858 -8.58350707 -5.28072283 0 0 Z " fill="#141419" transform="translate(648.359375,581.60546875)"/>
<path d="M0 0 C5.60300522 3.83567948 10.22970748 8.2950171 12 15 C12.92058589 22.65237023 12.8412585 29.72216627 8 36 C2.51370988 42.2430198 -4.40925235 45.51520122 -12.625 46.3828125 C-22.00938732 46.66661454 -28.88062116 45.18539128 -36.8125 40.25 C-42.98807162 33.89798348 -45.45640736 27.50768747 -45.33984375 18.7265625 C-44.55417267 12.42313249 -41.40728024 6.95846572 -36.8125 2.625 C-25.92963015 -5.61321545 -11.9211124 -6.9081318 0 0 Z " fill="#15151A" transform="translate(538,420)"/>
<path d="M0 0 C6.28596248 4.09009843 10.40260204 8.92624786 12.03515625 16.32421875 C12.82235513 23.5402085 10.77323454 29.61486141 6.91015625 35.63671875 C0.33704867 41.7811454 -6.24473081 42.91131116 -15.07470703 42.796875 C-22.57969213 42.47049418 -27.443597 40.73584607 -32.83984375 35.57421875 C-36.97377671 29.25173304 -39.29764949 22.94384402 -37.96484375 15.32421875 C-35.41317055 8.01814592 -32.03460373 3.12682764 -25.2265625 -0.63671875 C-17.2201185 -4.25039327 -7.77862494 -4.02342669 0 0 Z " fill="#15151A" transform="translate(534.96484375,349.67578125)"/>
<path d="M0 0 C3.3125 1 3.3125 1 5.3125 4 C4.93321337 8.83529775 3.7625884 13.3170649 2.39477539 17.95751953 C2.20277054 18.61375305 2.01076569 19.26998657 1.8129425 19.94610596 C1.18341864 22.09310079 0.54695274 24.23796457 -0.08984375 26.3828125 C-0.53238431 27.88530165 -0.97456291 29.38789746 -1.41639709 30.89059448 C-2.34058096 34.03001333 -3.26801521 37.16844653 -4.19799805 40.30615234 C-5.3877064 44.32053941 -6.57096904 48.33678983 -7.75202084 52.35373116 C-8.66371704 55.45300803 -9.57795432 58.5515305 -10.4930439 61.64980698 C-10.93018015 63.13035891 -11.36673431 64.61108284 -11.80268669 66.0919838 C-12.41280805 68.16247807 -13.0261341 70.23199593 -13.64038086 72.30126953 C-13.98822128 73.47706573 -14.33606171 74.65286194 -14.69444275 75.86428833 C-15.57406148 78.64180263 -16.56218571 81.31421814 -17.6875 84 C-18.87592068 80.43473795 -18.40699062 79.30656453 -17.32421875 75.7734375 C-17.01419922 74.74089844 -16.70417969 73.70835937 -16.38476562 72.64453125 C-15.88493164 71.02611328 -15.88493164 71.02611328 -15.375 69.375 C-13.21370969 62.28042379 -11.23860182 55.25303948 -9.6875 48 C-9.04846883 46.32254318 -8.38408363 44.65438613 -7.6875 43 C-6.14004855 38.26661911 -5.37131923 33.85747438 -5.03125 28.91796875 C-4.6875 27 -4.6875 27 -2.6875 25 C-2.11521473 22.807387 -2.11521473 22.807387 -1.75 20.3125 C-1.16083917 17.04147905 -0.47452175 14.19716138 0.9375 11.1875 C2.26491613 8.11030806 2.61175908 6.29184985 2.3125 3 C0.02413778 2.58013054 0.02413778 2.58013054 -2.6875 3 C-6.86585359 6.75053582 -10.35609573 11.07475465 -13.875 15.4375 C-14.40802734 16.08009766 -14.94105469 16.72269531 -15.49023438 17.38476562 C-18.53185029 21.15330862 -20.3433442 24.27822192 -21.6875 29 C-23.6875 31.375 -23.6875 31.375 -25.6875 33 C-26.3475 33 -27.0075 33 -27.6875 33 C-27.790625 33.763125 -27.89375 34.52625 -28 35.3125 C-28.7402101 38.20604856 -29.39739294 39.16791435 -31.6875 41 C-32.6775 41.495 -32.6775 41.495 -33.6875 42 C-33.6875 42.66 -33.6875 43.32 -33.6875 44 C-34.99950404 45.35432675 -36.33381404 46.68733482 -37.6875 48 C-38.1825 48.99 -38.1825 48.99 -38.6875 50 C-39.6775 50 -40.6675 50 -41.6875 50 C-41.914375 50.70125 -42.14125 51.4025 -42.375 52.125 C-43.96893758 55.61648231 -46.20732778 58.08579765 -48.6875 61 C-49.038125 61.70125 -49.38875 62.4025 -49.75 63.125 C-50.6875 65 -50.6875 65 -52.5234375 66.76953125 C-54.87948553 69.19787678 -56.49390444 71.67496032 -58.25 74.5625 C-60.19960516 77.7626314 -62.05202551 80.36452551 -64.6875 83 C-65.0175 83.99 -65.3475 84.98 -65.6875 86 C-66.6775 86 -67.6675 86 -68.6875 86 C-69.0278125 87.0828125 -69.0278125 87.0828125 -69.375 88.1875 C-70.93581013 91.53209313 -72.9906287 93.51603959 -75.6875 96 C-75.6875 92.32580449 -74.83356589 91.53024001 -72.609375 88.67578125 C-71.94921387 87.82024658 -71.28905273 86.96471191 -70.60888672 86.08325195 C-69.8923291 85.16890381 -69.17577148 84.25455566 -68.4375 83.3125 C-66.95517398 81.39626267 -65.47340757 79.47959233 -63.9921875 77.5625 C-62.88955566 76.14130859 -62.88955566 76.14130859 -61.76464844 74.69140625 C-58.98933254 71.09536929 -56.27226109 67.45801264 -53.5625 63.8125 C-48.68899359 57.2808849 -43.69777363 50.84559024 -38.68261719 44.42236328 C-34.81223495 39.46069175 -31.00650257 34.4568242 -27.2421875 29.4140625 C-23.65752114 24.61742316 -20.05121889 19.83727757 -16.4375 15.0625 C-15.75123535 14.14944092 -15.0649707 13.23638184 -14.35791016 12.2956543 C-5.03394294 0 -5.03394294 0 0 0 Z " fill="#F69C0D" transform="translate(332.6875,298)"/>
<path d="M0 0 C1.72104981 4.12772109 0.16280754 7.75592754 -1.08984375 11.80078125 C-1.31321915 12.55538132 -1.53659454 13.30998138 -1.76673889 14.08744812 C-2.48088437 16.49873786 -3.20765682 18.90591852 -3.9375 21.3125 C-4.89508307 24.47211068 -5.83981723 27.63516931 -6.77734375 30.80078125 C-6.9992186 31.51768631 -7.22109344 32.23459137 -7.44969177 32.97322083 C-8.76579552 37.41955425 -9.30961092 41.31155243 -9 46 C-6.83064216 48.16935784 -1.72307801 47.18668507 1.29321289 47.20532227 C2.26871597 47.21522186 3.24421906 47.22512146 4.24928284 47.23532104 C7.49038218 47.26703948 10.73149622 47.29173419 13.97265625 47.31640625 C16.21325574 47.33696686 18.45385127 47.35796308 20.69444275 47.37937927 C26.60455123 47.43469225 32.51469525 47.4840607 38.42486572 47.53222656 C44.45059386 47.5823744 50.47627012 47.63809545 56.50195312 47.69335938 C68.33459114 47.80105372 80.16727412 47.90247348 92 48 C92 48.33 92 48.66 92 49 C78.88310822 49.09256575 65.76629379 49.16369685 52.64914227 49.20724869 C46.55870234 49.22814844 40.4684854 49.25651002 34.37817383 49.30175781 C28.50376498 49.34512982 22.62957099 49.3691191 16.75501442 49.37950897 C14.51063465 49.38691586 12.266267 49.40137925 10.02197838 49.42292023 C6.88507794 49.45183879 3.74907222 49.45596078 0.61206055 49.45410156 C-0.32157822 49.46848267 -1.25521698 49.48286377 -2.21714783 49.49768066 C-8.49175624 49.45727809 -8.49175624 49.45727809 -11.08024597 47.12835693 C-12.19243545 44.55469472 -12.33352091 42.67295038 -12.25 39.875 C-12.23453125 39.00617188 -12.2190625 38.13734375 -12.203125 37.2421875 C-12 35 -12 35 -11 33 C-10.34 33 -9.68 33 -9 33 C-8.74476563 31.77410156 -8.48953125 30.54820312 -8.2265625 29.28515625 C-6.88651993 23.25496466 -5.13064832 17.3574605 -3.375 11.4375 C-3.05015625 10.33341797 -2.7253125 9.22933594 -2.390625 8.09179688 C-1.59639176 5.39373982 -0.79946328 2.69651103 0 0 Z " fill="#FE9C12" transform="translate(303,417)"/>
<path d="M0 0 C0 3.77794224 -1.06585881 4.63685168 -3.4375 7.5 C-5.58916677 10.10808094 -6.92338348 11.77015045 -8 15 C-8.66 15 -9.32 15 -10 15 C-10.185625 15.9590625 -10.185625 15.9590625 -10.375 16.9375 C-10.58125 17.618125 -10.7875 18.29875 -11 19 C-11.99 19.495 -11.99 19.495 -13 20 C-13.495 21.485 -13.495 21.485 -14 23 C-15.33333333 24.33333333 -16.66666667 25.66666667 -18 27 C-19.01866229 28.65532623 -20.01810813 30.32260138 -21 32 C-22.82857137 34.41632646 -24.73794363 36.71202596 -26.77734375 38.953125 C-27.40769531 39.64921875 -28.03804687 40.3453125 -28.6875 41.0625 C-29.28949219 41.71347656 -29.89148438 42.36445313 -30.51171875 43.03515625 C-32.0511734 45.06755963 -32.58394957 46.50924474 -33 49 C-33.61875 49.061875 -34.2375 49.12375 -34.875 49.1875 C-37.25602845 49.82051688 -37.25602845 49.82051688 -38.1875 52.4375 C-38.455625 53.283125 -38.72375 54.12875 -39 55 C-39.33 55.66 -39.66 56.32 -40 57 C-40.66 57 -41.32 57 -42 57 C-42 57.99 -42 58.98 -42 60 C-43.62102968 61.71108689 -45.29503463 63.37253306 -47 65 C-48.35555293 66.64864545 -49.69631653 68.31003995 -51 70 C-51.66 69.67 -52.32 69.34 -53 69 C-52.45811035 68.30777344 -52.45811035 68.30777344 -51.90527344 67.6015625 C-45.08468466 58.88086024 -38.30838387 50.1335864 -31.68701172 41.26049805 C-3.45428493 3.45428493 -3.45428493 3.45428493 0 0 Z " fill="#F6990E" transform="translate(212,451)"/>
<path d="M0 0 C0.33 0 0.66 0 1 0 C2 7.75 2 7.75 2 10 C5.93290478 12.62193652 9.31115678 12.30736166 13.87768555 12.31884766 C14.78520569 12.32889328 15.69272583 12.3389389 16.62774658 12.34928894 C19.63073079 12.38020702 22.63362551 12.39718006 25.63671875 12.4140625 C27.71752192 12.43276721 29.79831745 12.45234009 31.87910461 12.4727478 C37.35844424 12.52414865 42.83780849 12.56373182 48.31726074 12.60089111 C53.90753304 12.64088093 59.49770225 12.69199615 65.08789062 12.7421875 C76.05852142 12.83904095 87.02921031 12.92341558 98 13 C98 13.33 98 13.66 98 14 C85.83031248 14.06949845 73.66067214 14.12281059 61.49082661 14.15543652 C55.83992314 14.17109501 50.18915542 14.19233687 44.53833008 14.22631836 C39.08537142 14.2589049 33.63254337 14.27685163 28.17949486 14.28463173 C26.09866467 14.29017648 24.01784165 14.30100393 21.93706703 14.31719017 C19.02339839 14.33895483 16.11027 14.3419673 13.1965332 14.34057617 C12.33554016 14.351362 11.47454712 14.36214783 10.58746338 14.3732605 C5.90614369 14.34906191 2.79413553 14.06115469 -1 11 C-2.50662097 7.98675805 -2.17770373 5.31713623 -2 2 C-1.34 1.34 -0.68 0.68 0 0 Z " fill="#FCAA0E" transform="translate(158,522)"/>
<path d="M0 0 C0.5715332 1.87988281 0.5715332 1.87988281 1 4 C-0.14453125 5.921875 -0.14453125 5.921875 -1.8125 7.75 C-2.35519531 8.36359375 -2.89789063 8.9771875 -3.45703125 9.609375 C-5 11 -5 11 -7 11 C-7.09023437 11.57492187 -7.18046875 12.14984375 -7.2734375 12.7421875 C-8.18617489 15.57854349 -9.57053244 16.97534475 -11.625 19.125 C-16.72959811 24.68782057 -21.33854409 30.54928387 -24.625 37.375 C-26.25012003 40.47750188 -28.15914152 42.00372107 -31 44 C-31.66 43.67 -32.32 43.34 -33 43 C-32.46375 42.30519531 -31.9275 41.61039062 -31.375 40.89453125 C-25.15254808 32.81967177 -18.96777477 24.71664483 -12.79882812 16.60083008 C-8.56776208 11.03941518 -4.30214985 5.50661807 0 0 Z " fill="#F59B0D" transform="translate(255,394)"/>
<path d="M0 0 C1.71782719 4.12839121 0.17798424 7.78152095 -1.0546875 11.8359375 C-1.27569122 12.59290924 -1.49669495 13.34988098 -1.72439575 14.12979126 C-2.43193331 16.54772232 -3.152756 18.9614251 -3.875 21.375 C-4.58785338 23.78202487 -5.29782741 26.18984507 -6.00418091 28.5987854 C-6.44396593 30.09596183 -6.88783057 31.59194789 -7.33639526 33.08651733 C-8.50556399 37.03834584 -9.41910477 40.91935084 -10 45 C-10.66 45 -11.32 45 -12 45 C-12.02698189 43.37509046 -12.04638757 41.75005367 -12.0625 40.125 C-12.07410156 39.22007812 -12.08570313 38.31515625 -12.09765625 37.3828125 C-12 35 -12 35 -11 33 C-10.34 33 -9.68 33 -9 33 C-8.74476563 31.77410156 -8.48953125 30.54820312 -8.2265625 29.28515625 C-6.88651993 23.25496466 -5.13064832 17.3574605 -3.375 11.4375 C-3.05015625 10.33341797 -2.7253125 9.22933594 -2.390625 8.09179688 C-1.59639176 5.39373982 -0.79946328 2.69651103 0 0 Z " fill="#F49111" transform="translate(303,417)"/>
<path d="M0 0 C6.27 0 12.54 0 19 0 C19 0.66 19 1.32 19 2 C21.31 2 23.62 2 26 2 C26 2.33 26 2.66 26 3 C15.44 3 4.88 3 -6 3 C-6 2.67 -6 2.34 -6 2 C-4.02 2 -2.04 2 0 2 C0 1.34 0 0.68 0 0 Z " fill="#1C1C1F" transform="translate(512,320)"/>
<path d="M0 0 C-5.97293673 3.92507271 -11.00842078 4.33293234 -18 4 C-20.5 3 -20.5 3 -22 2 C-18.20220363 0.73406788 -14.39367902 0.34120533 -10.4375 -0.125 C-9.65697266 -0.22425781 -8.87644531 -0.32351563 -8.07226562 -0.42578125 C-2.24035279 -1.12017639 -2.24035279 -1.12017639 0 0 Z " fill="#0F0F12" transform="translate(757,644)"/>
<path d="M0 0 C3.0390625 -0.29296875 3.0390625 -0.29296875 6.625 -0.1875 C7.81351563 -0.16042969 9.00203125 -0.13335937 10.2265625 -0.10546875 C11.14179687 -0.07066406 12.05703125 -0.03585937 13 0 C13 0.99 13 1.98 13 3 C8.05 3 3.1 3 -2 3 C-1.34 2.01 -0.68 1.02 0 0 Z " fill="#202023" transform="translate(515,416)"/>
<path d="M0 0 C1.27837194 2.55674387 0.69805357 3.28481232 0 6 C-0.06624507 7.74886981 -0.08552595 9.50002748 -0.0625 11.25 C-0.04896484 12.58804687 -0.04896484 12.58804687 -0.03515625 13.953125 C-0.02355469 14.62859375 -0.01195312 15.3040625 0 16 C-0.99 15.67 -1.98 15.34 -3 15 C-3.35050464 9.158256 -3.16727335 5.1468192 0 0 Z " fill="#1F1F23" transform="translate(500,359)"/>
<path d="M0 0 C0.33 0 0.66 0 1 0 C2 7.75 2 7.75 2 10 C2.99 10.66 3.98 11.32 5 12 C4.67 12.66 4.34 13.32 4 14 C-0.875 11.25 -0.875 11.25 -2 9 C-2.1875 5.5 -2.1875 5.5 -2 2 C-1.34 1.34 -0.68 0.68 0 0 Z " fill="#F39110" transform="translate(158,522)"/>
<path d="M0 0 C0.66 0 1.32 0 2 0 C1.01 4.95 0.02 9.9 -1 15 C-1.66 15 -2.32 15 -3 15 C-3.02698189 13.37509046 -3.04638757 11.75005367 -3.0625 10.125 C-3.07410156 9.22007812 -3.08570313 8.31515625 -3.09765625 7.3828125 C-3 5 -3 5 -2 3 C-1.34 3 -0.68 3 0 3 C0 2.01 0 1.02 0 0 Z " fill="#ED8113" transform="translate(294,447)"/>
<path d="M0 0 C2.0234375 -0.3984375 2.0234375 -0.3984375 4.375 -0.375 C5.14585937 -0.38273438 5.91671875 -0.39046875 6.7109375 -0.3984375 C9 0 9 0 13 3 C8.05 3 3.1 3 -2 3 C-1.34 2.01 -0.68 1.02 0 0 Z " fill="#F1F2F5" transform="translate(498,525)"/>
<path d="M0 0 C1.73684533 3.47369066 2.30084112 5.07619937 2.625 8.75 C2.69976563 9.54921875 2.77453125 10.3484375 2.8515625 11.171875 C2.90054688 11.77515625 2.94953125 12.3784375 3 13 C2.01 13.33 1.02 13.66 0 14 C0 9.38 0 4.76 0 0 Z " fill="#1E1E21" transform="translate(544,573)"/>
<path d="M0 0 C0 3.96 0 7.92 0 12 C-0.99 11.67 -1.98 11.34 -3 11 C-3 7.7 -3 4.4 -3 1 C-1 0 -1 0 0 0 Z " fill="#1D1D21" transform="translate(496,435)"/>
<path d="M0 0 C2 4 2 4 1.5390625 6.359375 C1.23742187 7.14828125 0.93578125 7.9371875 0.625 8.75 C0.32851562 9.54921875 0.03203125 10.3484375 -0.2734375 11.171875 C-0.51320312 11.77515625 -0.75296875 12.3784375 -1 13 C-1.66 13 -2.32 13 -3 13 C-2.01 8.71 -1.02 4.42 0 0 Z " fill="#EE6821" transform="translate(227,654)"/>
<path d="M0 0 C0.33 0 0.66 0 1 0 C1 4.29 1 8.58 1 13 C0.01 13 -0.98 13 -2 13 C-2.05447047 11.58376784 -2.09300508 10.16691809 -2.125 8.75 C-2.14820313 7.96109375 -2.17140625 7.1721875 -2.1953125 6.359375 C-1.9828378 3.79268059 -1.28654105 2.2083933 0 0 Z " fill="#1F2023" transform="translate(464,358)"/>
<path d="M0 0 C3.63 0 7.26 0 11 0 C10.67 0.99 10.34 1.98 10 3 C6.7 3 3.4 3 0 3 C0 2.01 0 1.02 0 0 Z " fill="#1E1E22" transform="translate(629,645)"/>
<path d="M0 0 C0.66 0 1.32 0 2 0 C2 1.98 2 3.96 2 6 C1.34 6 0.68 6 0 6 C-0.33 7.98 -0.66 9.96 -1 12 C-1.66 12 -2.32 12 -3 12 C-2.01 8.04 -1.02 4.08 0 0 Z " fill="#E56E1E" transform="translate(246,590)"/>
<path d="M0 0 C0.99 0.33 1.98 0.66 3 1 C3.1875 4.3125 3.1875 4.3125 3 8 C2.01 8.99 1.02 9.98 0 11 C0 7.37 0 3.74 0 0 Z " fill="#1C1D21" transform="translate(684,406)"/>
<path d="M0 0 C0.33 0 0.66 0 1 0 C1.33 3.63 1.66 7.26 2 11 C-1 8 -1 8 -1.07421875 5.95703125 C-0.71614583 3.97135417 -0.35807292 1.98567708 0 0 Z " fill="#EA6623" transform="translate(215,695)"/>
<path d="M0 0 C0.598125 0.350625 1.19625 0.70125 1.8125 1.0625 C1.4825 2.0525 1.1525 3.0425 0.8125 4.0625 C-1.1675 3.4025 -3.1475 2.7425 -5.1875 2.0625 C-5.1875 1.4025 -5.1875 0.7425 -5.1875 0.0625 C-2.1875 -0.9375 -2.1875 -0.9375 0 0 Z " fill="#1D1C1F" transform="translate(557.1875,401.9375)"/>
<path d="M0 0 C2.08954032 4.17908064 2.16552619 4.80410573 1 9 C0.01 9 -0.98 9 -2 9 C-1.34 6.03 -0.68 3.06 0 0 Z " fill="#F16721" transform="translate(223,668)"/>
<path d="M0 0 C2.97 0.99 5.94 1.98 9 3 C9 3.66 9 4.32 9 5 C7.68 5.33 6.36 5.66 5 6 C5 5.01 5 4.02 5 3 C2.525 2.01 2.525 2.01 0 1 C0 0.67 0 0.34 0 0 Z " fill="#0D0D0F" transform="translate(482,399)"/>
  </g>
</svg>
